<?xml version="1.0" standalone="no"?>
<!DOCTYPE svg PUBLIC "-//W3C//DTD SVG 20010904//EN"
 "http://www.w3.org/TR/2001/REC-SVG-20010904/DTD/svg10.dtd">
<svg version="1.0" xmlns="http://www.w3.org/2000/svg"
 width="2048.000000pt" height="2048.000000pt" viewBox="0 0 2048.000000 2048.000000"
 preserveAspectRatio="xMidYMid meet">

<g transform="translate(0.000000,2048.000000) scale(0.100000,-0.100000)"
fill="#000000" stroke="none">
<path d="M13190 15679 c-14 -6 -142 -46 -285 -89 -143 -44 -366 -112 -495
-153 -409 -129 -913 -285 -975 -302 -70 -21 -110 -46 -130 -84 -7 -15 -53
-171 -100 -347 -70 -257 -86 -328 -82 -367 4 -51 26 -88 71 -121 27 -21 40
-21 839 -28 447 -3 837 -9 868 -13 51 -6 59 -4 108 26 51 32 54 32 94 19 25
-7 108 -15 200 -17 l157 -4 0 -414 0 -413 -127 -4 c-120 -3 -133 -5 -200 -36
-80 -36 -80 -36 -157 20 l-39 28 -844 0 c-938 0 -886 4 -939 -66 -42 -55 -41
-92 9 -280 26 -93 66 -248 91 -344 25 -96 54 -186 64 -200 10 -14 38 -35 63
-47 35 -17 510 -173 1327 -435 55 -17 77 -33 182 -131 l120 -112 0 -492 0
-493 -39 -19 c-48 -25 -108 -94 -122 -141 -7 -22 -9 -160 -7 -381 l3 -346 28
-41 c17 -26 49 -54 82 -73 l55 -31 0 -441 c0 -408 2 -445 19 -482 21 -46 54
-79 94 -94 16 -6 99 -11 188 -11 l159 0 0 -1898 0 -1898 23 -44 c15 -31 35
-51 66 -67 l44 -23 736 0 c696 0 738 1 777 19 23 10 52 34 65 52 l24 34 5
1910 5 1910 200 5 c221 6 243 11 287 72 l23 33 3 1939 2 1938 -22 39 c-43 77
-66 84 -290 87 l-198 4 0 389 c0 214 1 389 3 389 2 0 79 -20 171 -45 93 -25
171 -45 173 -45 1 0 3 -44 3 -98 l0 -98 -44 -12 c-81 -21 -146 -104 -146 -185
0 -55 28 -117 59 -129 14 -6 96 -13 181 -15 142 -5 160 -4 202 15 83 36 85 47
89 402 4 282 3 307 -14 335 -37 61 -41 62 -454 171 l-223 59 0 786 c0 560 -3
796 -11 820 -15 43 -55 88 -96 105 -27 12 -194 14 -965 13 -604 0 -942 -4
-958 -10z m1688 -1585 l-3 -1256 -532 -1 -533 -2 0 770 c0 499 -4 783 -10 807
-15 52 -53 94 -103 113 -37 14 -87 15 -387 12 -458 -6 -1793 -7 -1799 -2 -3 4
35 147 70 262 12 37 -97 0 949 322 377 115 696 214 710 220 16 6 320 10 833
10 l807 1 -2 -1256z m-1944 -1049 c38 -12 106 -15 293 -15 l243 0 0 -199 c0
-117 4 -211 11 -228 15 -42 68 -92 109 -103 22 -6 370 -10 920 -10 l885 0 0
-1715 0 -1715 -1027 0 -1028 0 0 433 c0 413 -1 433 -20 465 -18 28 -66 59
-122 76 -16 5 -18 25 -18 226 l0 221 43 18 c53 23 103 78 117 130 7 26 9 242
6 655 l-5 617 -23 38 c-21 34 -268 269 -343 326 -18 14 -223 86 -515 180 -267
87 -570 185 -674 219 l-189 61 -34 125 c-18 69 -36 139 -39 157 l-6 31 655 1
c380 1 665 5 679 10 30 13 26 13 82 -4z m1946 -4470 l0 -145 -122 0 c-151 0
-186 -9 -231 -60 -74 -81 -60 -194 33 -257 30 -21 44 -23 177 -23 l143 0 -2
-205 -3 -205 -136 -3 c-129 -2 -138 -4 -177 -30 -51 -33 -74 -76 -74 -137 0
-68 36 -126 99 -159 13 -6 76 -11 157 -11 l136 0 0 -210 0 -210 -130 0 c-146
0 -181 -9 -223 -59 -69 -83 -49 -201 44 -256 29 -17 56 -21 172 -23 l137 -4
-2 -205 -3 -205 -140 -2 c-127 -1 -143 -3 -177 -24 -74 -46 -101 -173 -51
-240 46 -62 62 -67 224 -70 l149 -3 0 -350 0 -349 -537 2 -538 3 0 1793 0
1792 537 0 538 0 0 -145z"/>
<path d="M13693 12245 c-27 -16 -49 -40 -62 -68 -21 -43 -21 -45 -21 -1403 0
-1524 -6 -1394 73 -1458 l39 -31 639 -3 c611 -2 642 -2 683 17 24 10 56 36 72
57 l29 37 3 1356 c1 746 0 1371 -3 1389 -7 40 -59 101 -102 118 -26 11 -157
14 -670 14 l-638 0 -42 -25z m1117 -1470 l0 -1155 -430 0 -430 0 0 1155 0
1155 430 0 430 0 0 -1155z"/>
<path d="M8845 13143 c-810 -18 -971 -25 -1011 -43 -63 -27 -82 -67 -125 -273
-21 -100 -58 -271 -82 -381 l-43 -199 -105 -37 c-163 -59 -420 -178 -510 -236
-25 -16 -27 -15 -349 175 -178 106 -343 197 -366 203 -80 22 -113 3 -253 -140
-325 -333 -701 -734 -716 -763 -25 -47 -21 -121 8 -172 21 -37 165 -265 337
-531 l57 -90 -53 -114 c-61 -128 -146 -349 -179 -462 -21 -73 -23 -75 -61 -84
-250 -60 -754 -200 -774 -214 -54 -41 -65 -77 -63 -202 5 -315 16 -755 22
-920 12 -278 14 -281 302 -340 107 -22 282 -59 389 -81 107 -22 198 -43 201
-47 3 -4 22 -52 43 -107 34 -88 173 -376 237 -491 l23 -41 -114 -194 c-62
-107 -149 -256 -193 -332 -116 -202 -116 -248 1 -358 37 -35 231 -221 430
-414 200 -192 374 -355 385 -362 29 -16 100 -16 140 1 18 7 154 91 302 186
149 95 292 186 318 202 l48 30 142 -65 c151 -69 349 -144 460 -173 66 -18 68
-19 78 -59 78 -298 203 -726 217 -745 38 -50 80 -70 151 -70 166 0 987 22
1084 29 104 8 109 9 142 41 19 19 39 47 44 64 5 17 44 198 87 403 76 365 78
372 103 378 97 24 505 208 606 272 l30 19 185 -106 c387 -223 469 -263 535
-267 80 -5 101 8 222 137 683 734 700 753 713 799 17 63 2 98 -121 291 -61 96
-153 243 -205 326 l-93 151 69 160 c38 88 91 226 119 308 28 82 54 152 58 156
5 5 82 26 173 48 337 82 580 149 606 165 14 10 35 38 46 62 19 44 19 55 8 437
-23 786 -24 807 -48 853 -11 23 -32 49 -47 58 -14 9 -199 56 -412 104 l-388
87 -47 135 c-26 74 -88 216 -137 315 l-90 180 61 110 c34 61 113 196 177 300
179 296 187 316 160 393 -7 21 -147 159 -441 434 -237 222 -445 413 -461 425
-37 28 -106 39 -148 24 -28 -10 -607 -391 -650 -427 -13 -12 -29 -7 -110 32
-119 59 -279 121 -436 171 l-121 38 -51 190 c-27 104 -72 273 -98 375 -42 163
-52 189 -81 222 -40 45 -84 59 -172 56 -36 -1 -110 -3 -165 -5z m89 -360 c3
-10 44 -166 91 -348 48 -181 93 -341 100 -355 29 -54 67 -78 170 -104 212 -53
349 -107 589 -229 156 -79 159 -80 205 -71 34 8 127 64 359 218 311 206 314
208 335 189 34 -28 228 -205 377 -343 74 -69 159 -146 189 -171 l53 -47 -55
-93 c-226 -386 -328 -567 -337 -601 -14 -50 -2 -91 47 -164 94 -140 192 -350
269 -578 58 -170 81 -208 138 -225 17 -5 187 -42 377 -82 l346 -73 7 -126 c3
-69 9 -263 12 -431 6 -264 5 -306 -8 -311 -8 -3 -169 -43 -358 -88 -189 -45
-354 -89 -367 -97 -41 -27 -62 -67 -92 -179 -51 -187 -110 -342 -203 -537 -80
-166 -90 -192 -85 -228 4 -31 52 -110 206 -342 110 -166 202 -309 206 -318 4
-10 -29 -52 -97 -125 -57 -60 -184 -196 -282 -303 -98 -106 -184 -195 -191
-197 -7 -3 -131 61 -276 142 -145 81 -291 162 -324 180 -90 50 -130 47 -236
-18 -252 -154 -493 -263 -707 -318 -49 -13 -105 -58 -120 -97 -9 -24 -71 -314
-139 -660 l-17 -82 -80 -5 c-79 -5 -779 -25 -783 -22 -3 2 -64 230 -134 496
-28 107 -58 212 -67 233 -25 60 -63 82 -201 117 -186 47 -356 112 -551 211
-96 49 -188 89 -203 89 -41 0 -80 -19 -212 -105 -66 -43 -147 -95 -180 -115
-33 -21 -118 -74 -189 -118 l-128 -81 -307 292 c-168 161 -308 295 -309 300
-4 7 178 325 293 512 71 115 90 163 81 209 -4 18 -38 87 -78 152 -101 170
-209 397 -264 558 -45 131 -74 185 -113 206 -10 5 -179 41 -377 80 -197 39
-366 73 -375 76 -13 4 -17 28 -23 137 -13 266 -27 709 -23 714 5 5 481 128
627 163 180 42 204 64 240 215 44 192 104 350 217 576 51 103 83 179 83 198 0
40 -21 82 -114 223 -143 220 -273 423 -284 444 -11 20 9 44 232 280 134 143
268 282 297 311 l54 51 280 -164 c369 -217 368 -217 433 -216 47 0 64 7 135
52 185 116 493 251 683 300 50 12 89 41 109 81 9 16 25 75 36 131 41 208 131
613 137 620 8 8 441 24 699 26 156 2 172 0 177 -15z"/>
<path d="M8440 11159 c-505 -36 -971 -257 -1319 -625 -146 -154 -249 -305
-343 -500 -154 -323 -224 -672 -198 -997 38 -494 230 -918 569 -1258 271 -271
562 -439 916 -529 83 -21 206 -45 273 -54 998 -128 1958 555 2187 1557 46 202
59 488 29 686 -32 222 -95 423 -189 610 -235 469 -615 810 -1113 1000 -222 85
-551 129 -812 110z m380 -354 c532 -86 975 -404 1233 -885 172 -321 221 -737
132 -1115 -104 -443 -404 -843 -800 -1069 -483 -275 -1079 -285 -1575 -25
-154 81 -253 153 -384 279 -148 142 -251 281 -336 455 -76 153 -109 246 -142
399 -30 138 -33 493 -5 631 61 300 211 590 422 814 100 105 237 220 349 289
170 107 409 196 601 226 124 19 387 20 505 1z"/>
<path d="M8425 10314 c-439 -64 -797 -358 -943 -774 -123 -353 -59 -758 169
-1060 223 -295 553 -460 919 -460 329 0 605 120 838 363 247 260 365 627 307
960 -66 380 -296 693 -630 858 -172 85 -278 110 -475 114 -85 2 -168 1 -185
-1z m335 -354 c243 -59 458 -235 556 -457 61 -137 82 -352 50 -504 -62 -292
-292 -534 -581 -611 -109 -28 -298 -31 -405 -4 -284 70 -508 291 -592 583 -29
101 -32 294 -5 393 20 76 83 211 128 277 74 108 215 222 346 279 146 65 343
82 503 44z"/>
</g>
</svg>
